<svg width="20" height="20" viewBox="0 0 20 20" fill="none" xmlns="http://www.w3.org/2000/svg">
<rect width="20" height="20" fill="#757575"/>
<path d="M7 5.2C7.53043 5.2 8.03914 5.41071 8.41421 5.78579C8.78929 6.16086 9 6.66957 9 7.2C9 7.57 8.89 7.91 8.72 8.2C8.72 8.2 8 8 7 8C6 8 5.28 8.2 5.28 8.2C5.11 7.91 5 7.57 5 7.2C5 6.66957 5.21071 6.16086 5.58579 5.78579C5.96086 5.41071 6.46957 5.2 7 5.2V5.2ZM13 5.2C14.11 5.2 15 6.09 15 7.2C15 7.57 14.89 7.91 14.72 8.2C14.72 8.2 14 8 13 8C12 8 11.28 8.2 11.28 8.2C11.11 7.91 11 7.57 11 7.2C11 6.09 11.89 5.2 13 5.2V5.2ZM10 18.9C11.8139 18.9014 13.5827 18.3352 15.0586 17.2808C16.5345 16.2263 17.6435 14.7364 18.23 13.02L16.91 12.56C15.9 15.52 13.12 17.5 10 17.5C6.88 17.5 4.1 15.52 3.09 12.56L1.77 13.02C2.35654 14.7364 3.46547 16.2263 4.94137 17.2808C6.41726 18.3352 8.18612 18.9014 10 18.9Z" fill="#F8F8F8"/>
</svg>
